<svg width="72" height="28" viewBox="0 0 72 28" fill="none" xmlns="http://www.w3.org/2000/svg">
<path d="M7.60155 4.00627C8.78658 4.2664 9.30684 4.98898 9.30684 5.91389C9.30684 6.9255 8.67097 7.93711 7.168 7.93711C5.75174 7.93711 4.91355 6.86769 4.91355 5.22021C4.91355 3.05247 5.95407 1.23156 8.064 0.104335C8.43974 -0.0979868 8.81549 0.0176243 8.96 0.248851C9.10452 0.480077 9.04671 0.798012 8.69987 1.02924C8.15071 1.37608 7.22581 2.24318 7.19691 3.25479C7.168 3.68834 7.34142 4.00627 7.60155 4.00627ZM2.688 4.00627C3.87303 4.2664 4.39329 4.98898 4.39329 5.91389C4.39329 6.9255 3.75742 7.93711 2.25445 7.93711C0.838193 7.93711 0 6.86769 0 5.22021C0 3.05247 1.04052 1.23156 3.15045 0.104335C3.5262 -0.0979868 3.90194 0.0176243 4.04645 0.248851C4.19097 0.480077 4.13316 0.798012 3.78633 1.02924C3.23716 1.37608 2.31226 2.24318 2.28336 3.25479C2.25445 3.68834 2.42787 4.00627 2.688 4.00627ZM18.2465 6.63647V12.0414C18.2465 12.735 18.8535 12.9663 19.3448 12.9663L25.1255 12.8796C25.5879 12.8796 26.5996 12.8507 27.3221 12.3882C27.5245 12.2726 27.8424 12.157 28.3337 12.1281C29.143 12.0992 30.2703 12.1281 30.8483 12.2148C31.7732 12.4171 32.1779 12.9663 32.149 13.5154C32.0623 14.0068 31.5709 14.527 30.646 14.527L17.9286 14.6427C17.1482 14.6427 16.4256 14.5849 15.8476 14.2669C15.2984 13.949 14.9226 13.4576 14.9226 12.5616V6.72318C14.9226 6.14511 14.807 5.62485 14.4602 5.36472C14.0266 5.04679 13.1596 4.84447 12.3792 4.72885C12.119 4.72885 11.9745 4.38201 12.0034 4.06408C12.0034 3.74614 12.1768 3.42821 12.6104 3.39931C13.2174 3.39931 14.3157 3.42821 15.3851 3.45711C16.4256 3.54382 17.4661 3.65943 18.0731 3.77505C18.4199 3.89066 18.5066 4.43982 18.391 4.81556C18.2754 5.27802 18.2465 6.0584 18.2465 6.63647ZM35.8486 21.8685C35.7619 22.591 35.1838 22.9379 34.2878 22.9379C33.623 22.9379 32.7559 22.909 31.7443 22.909C30.7905 22.8801 29.6633 22.8512 28.5361 22.8512C26.6863 22.8512 24.4607 22.909 22.3797 22.9379C20.2986 22.9668 18.3332 23.0535 17.0615 23.1402C16.7146 23.1691 16.4256 23.2558 16.1655 23.3425C15.9343 23.4292 15.6741 23.5159 15.4429 23.6027C14.8648 23.8339 14.2001 24.0651 13.2752 23.7183C12.5526 23.487 11.4254 23.0246 10.3848 22.4465C8.99749 21.6372 9.37323 20.799 10.8762 21.0014C12.1479 21.2037 14.0266 21.3193 16.599 21.3193C18.9113 21.3193 21.079 21.3482 22.8999 21.3482C24.7497 21.3482 26.2527 21.3482 27.2932 21.2615C28.4205 21.2326 29.1719 21.1459 29.5477 21.0014C29.6922 20.9725 29.9523 20.8279 30.2125 20.7412C30.4726 20.6545 30.7327 20.5678 30.9639 20.5389C32.149 20.4522 33.5652 20.51 34.6057 20.7412C35.3861 20.9436 35.8775 21.2904 35.8486 21.8685ZM56.1545 12.6483L44.4197 12.6772C43.6394 12.6772 42.9168 12.6483 42.3676 12.3882C41.7896 12.1281 41.4427 11.6656 41.4427 10.7407V8.94872C41.4427 7.99492 40.9803 7.59027 39.8241 7.35905C39.3617 7.24343 39.1594 7.01221 39.2461 6.69427C39.3328 6.34743 39.564 6.17402 39.9687 6.14511C40.5467 6.14511 41.5005 6.20292 42.4254 6.23182C43.3503 6.31853 44.2752 6.40524 44.8533 6.43414C47.3679 6.54976 50.5183 6.52085 52.9173 6.40524L53.0329 3.48601H49.7379C48.3795 3.48601 46.9632 3.51492 46.125 3.54382C45.7493 3.57272 45.3736 3.65943 45.0556 3.77505C44.7377 3.89066 44.5354 4.00627 44.4487 4.00627C44.1018 4.2086 43.6394 4.32421 42.9457 4.09298C42.252 3.94847 41.4716 3.54382 40.3155 2.70563C39.6218 2.12756 39.8241 1.5784 41.0959 1.69401C42.1364 1.80963 43.8128 1.92524 45.1134 1.92524C46.0383 1.95414 47.339 1.98305 48.6107 1.98305C49.8825 1.98305 51.0964 1.95414 51.9346 1.83853C52.0791 1.83853 52.2236 1.80963 52.3392 1.78072C52.4548 1.78072 52.5416 1.75182 52.6572 1.72292C52.7728 1.63621 53.0907 1.46279 53.4665 1.46279H54.9405C55.4897 1.46279 55.8654 1.49169 56.1256 1.5495C56.7903 1.75182 56.9348 2.24318 56.7325 2.61892C56.588 2.93685 56.3568 3.45711 56.2412 3.83285L55.6342 6.40524C56.1834 6.43414 56.6747 6.57866 56.6747 7.18563C56.6747 7.73479 56.2412 7.99492 55.2007 7.99492C54.7671 7.99492 54.0156 7.99492 53.004 8.02382H49.8246C48.6974 8.05272 47.6569 8.05272 46.6742 8.05272H44.651V10.1338C44.651 10.8274 45.1423 11.0876 45.7204 11.0876L50.5761 11.0587H51.0675C51.2698 11.0587 51.4432 11.0587 51.6456 11.0298C52.0213 11.0009 52.4259 10.9141 52.8017 10.7118C52.8884 10.6829 53.1196 10.5095 53.3508 10.4806C53.7555 10.4517 54.2757 10.4228 54.9116 10.4517C55.5764 10.4517 56.0677 10.4806 56.4146 10.5095C57.3106 10.7118 57.6863 11.2321 57.6574 11.7234C57.5707 12.1859 57.0794 12.6483 56.1545 12.6483ZM50.8363 16.9549V20.9436C50.8652 25.3369 50.1426 27.5335 48.8419 27.6202C47.9459 27.7069 47.5702 25.9438 47.5702 22.5043V17.0416C45.836 17.0705 44.3041 17.1283 43.2636 17.215C42.9168 17.2439 42.6277 17.3307 42.3676 17.4174C42.1364 17.5041 41.8763 17.5908 41.645 17.6775C41.067 17.9087 40.4022 18.1399 39.4773 17.7931C38.7547 17.5619 37.6275 17.0994 36.587 16.5214C35.1996 15.7121 35.5754 14.8739 37.0783 15.0762C38.3501 15.2785 40.1999 15.3941 42.8301 15.3941C45.1423 15.3941 47.2812 15.423 49.1021 15.423C50.923 15.423 52.4259 15.423 53.4665 15.3363C54.5937 15.3074 55.3452 15.2207 55.7209 15.0762C55.8654 15.0473 56.1256 14.9028 56.3857 14.8161C56.6458 14.7294 56.9059 14.6427 57.1372 14.6138C58.3222 14.527 59.7385 14.5849 60.779 14.8161C61.5594 15.0184 62.0507 15.3652 62.0218 15.9433C61.9351 16.6659 61.357 17.0127 60.461 17.0127C59.7963 17.0127 58.9292 16.9838 57.9176 16.9838C56.9637 16.9549 55.8365 16.926 54.7093 16.926C53.5532 16.926 52.2525 16.9549 50.8363 16.9549ZM64.003 4.32421C62.7602 4.09298 62.2977 3.3415 62.2977 2.4166C62.2977 1.46279 62.9336 0.393367 64.4366 0.393367C65.8239 0.393367 66.691 1.49169 66.691 3.11027C66.691 5.30692 65.6216 7.15672 63.5406 8.22614C63.107 8.45737 62.7602 8.34176 62.6157 8.11053C62.4712 7.87931 62.529 7.56137 62.9047 7.30124C63.3961 6.9544 64.321 6.11621 64.4077 5.07569C64.4077 4.69995 64.2343 4.35311 64.003 4.32421ZM68.801 4.32421C67.5581 4.09298 67.0957 3.3415 67.0957 2.4166C67.0957 1.46279 67.7315 0.393367 69.2345 0.393367C70.6219 0.393367 71.489 1.49169 71.489 3.11027C71.489 5.30692 70.4195 7.15672 68.3385 8.22614C67.905 8.45737 67.5581 8.34176 67.4136 8.11053C67.2691 7.87931 67.3269 7.56137 67.7026 7.30124C68.194 6.9544 69.1189 6.11621 69.2056 5.07569C69.2056 4.69995 69.0322 4.35311 68.801 4.32421Z" fill="white"/>
</svg>
