<svg width="665" height="299" viewBox="0 0 665 299" fill="none" xmlns="http://www.w3.org/2000/svg">
<path d="M56.7001 134.55C56.3 134.85 55.8 135 55.2001 135C54.8 135 54.4501 134.8 54.1501 134.4C53.1501 132.7 51.9501 130.6 50.55 128.1C49.25 125.6 48 123.1 46.8 120.6C45.6 118 44.7 115.9 44.1 114.3C43.8 113.5 43.8 112.95 44.1 112.65C44.4 112.35 44.8501 112.15 45.4501 112.05C46.25 111.95 47.05 111.85 47.85 111.75C48.75 111.65 49.7001 111.55 50.7001 111.45L59.1 110.55V29.55C59.1 22.05 58.9501 16.2 58.6501 12C58.4501 7.7 58.1 4.9 57.6 3.6C57.5 3.1 57.6001 2.7 57.9001 2.4C58.2001 1.9 58.7001 1.75 59.4001 1.95C60.6001 2.25 62.4001 2.9 64.8001 3.9C67.3001 4.8 69.8001 5.8 72.3001 6.9C74.8001 7.9 76.7001 8.8 78.0001 9.6H106.05C107.25 9.6 108.1 9.15 108.6 8.25C108.9 7.75 109.35 7 109.95 6C110.55 4.9 111 4.05 111.3 3.45C111.8 2.65 112.4 2.25 113.1 2.25C113.4 2.25 113.85 2.35 114.45 2.55C115.85 2.95 117.55 3.6 119.55 4.5C121.55 5.3 123.5 6.2 125.4 7.2C127.4 8.1 128.95 8.95 130.05 9.75C131.15 10.35 131.7 11.25 131.7 12.45C131.7 13.75 131 14.7 129.6 15.3C129.2 15.4 128.8 15.6 128.4 15.9C126.8 16.8 126 18.75 126 21.75C126 26.75 126.05 31.8 126.15 36.9C126.25 42 126.3 46.75 126.3 51.15C126.4 55.55 126.5 59.25 126.6 62.25C126.7 65.15 126.75 67 126.75 67.8C126.75 69 125.7 70.1 123.6 71.1C125.2 72.1 126.95 73.3 128.85 74.7C130.85 76 132.7 77.3 134.4 78.6C136.1 79.8 137.3 80.75 138 81.45C138.4 81.75 138.6 82.15 138.6 82.65C138.6 83.15 138.45 83.55 138.15 83.85C137.65 84.95 136.85 85.25 135.75 84.75C135.45 84.55 135.15 84.45 134.85 84.45C134.55 84.45 134.3 84.45 134.1 84.45C133.3 84.45 132.5 84.7 131.7 85.2C128 87.3 124 89.3 119.7 91.2C115.5 93 111.55 94.6 107.85 96C112.55 100.1 117.8 103.55 123.6 106.35C129.4 109.15 135.5 111.7 141.9 114C139.7 114.6 137.35 115.95 134.85 118.05C132.45 120.05 130.2 122.35 128.1 124.95C126.1 127.55 124.65 129.95 123.75 132.15C119.75 129.85 115.8 126.95 111.9 123.45C108 119.85 104.45 115.75 101.25 111.15C98.2501 112.35 94.8501 113.75 91.0501 115.35C87.2501 116.95 83.3501 118.6 79.3501 120.3C75.3501 122 71.6001 123.65 68.1001 125.25C64.6001 126.85 61.6501 128.25 59.25 129.45C57.85 130.05 57.35 131.05 57.75 132.45C57.75 132.55 57.75 132.6 57.75 132.6C57.85 132.7 57.9001 132.8 57.9001 132.9C57.9001 133.6 57.5 134.15 56.7001 134.55ZM25.9501 135.75C23.4501 135.75 22.2001 134.6 22.2001 132.3C22.2001 132 22.25 130.4 22.35 127.5C22.4501 124.6 22.55 120.85 22.65 116.25C22.85 111.65 23.05 106.5 23.25 100.8C23.4501 95.1 23.6 89.2 23.7001 83.1C23.8001 77 23.85 71.15 23.85 65.55V14.55C23.85 11.25 23.7 8.6 23.4 6.6C23.1 4.5 22.8 3.1 22.5 2.4C22.5 2.4 22.5 2.35 22.5 2.25C22.3 1.45 22.3 0.899998 22.5 0.599998C22.6 0.199998 23.0501 0 23.85 0C25.25 0.1 27.25 0.35 29.85 0.75C32.45 1.05 35.0501 1.4 37.6501 1.8C40.3501 2.1 42.3 2.4 43.5 2.7C44.6 3.1 45.1501 3.85 45.1501 4.95C45.1501 6.55 44.4001 7.45 42.9001 7.65C41.9001 7.75 41.1501 8.1 40.6501 8.7C40.25 9.3 40.05 10.35 40.05 11.85V23.1C45.55 24.8 50 27.2 53.4001 30.3C56.8001 33.3 58.5 36.95 58.5 41.25C58.5 44.35 57.6 46.7 55.8 48.3C54.1 49.9 52.25 50.7 50.25 50.7C48.6501 50.7 47.2001 50.2 45.9001 49.2C44.7001 48.2 44.05 46.7 43.9501 44.7C43.8501 41.8 43.5 39.05 42.9001 36.45C42.4001 33.75 41.4501 31.3 40.05 29.1V130.65C40.05 131.65 39.3 132.55 37.8 133.35C36.4 134.15 34.6001 134.75 32.4001 135.15C30.3001 135.55 28.1501 135.75 25.9501 135.75ZM108.3 40.2H76.3501V62.25H108.3V40.2ZM108.3 14.1H76.3501V35.7H108.3V14.1ZM85.8001 66.75H76.3501V108.6L98.2501 106.5C94.9501 101 92.2001 94.95 90.0001 88.35C87.9001 81.65 86.5001 74.45 85.8001 66.75ZM8.40005 74.4C5.80005 74.4 3.75005 73.7 2.25 72.3C0.75 70.8 0 69 0 66.9C0 64 1.3 61.2 3.90005 58.5C5.90005 56.5 7.35005 53.8 8.25005 50.4C9.15005 47 9.60005 43.35 9.60005 39.45C9.60005 37.05 9.45005 34.65 9.15005 32.25C10.05 31.05 11.05 30.8 12.15 31.5C14.85 34.9 16.9501 38.95 18.4501 43.65C19.9501 48.35 20.7001 52.9 20.7001 57.3C20.7001 62 19.7001 66.05 17.7001 69.45C15.8001 72.75 12.7 74.4 8.40005 74.4ZM104.4 92.7C106.5 90.2 108.75 87.1 111.15 83.4C113.55 79.7 115.5 76.3 117 73.2L117.3 72.75C116.5 72.85 115.65 72.95 114.75 73.05C113.85 73.05 113 73.05 112.2 73.05C109.6 73.05 108.3 71.85 108.3 69.45V66.75H90.6001C91.9001 72.25 93.7001 77.15 96.0001 81.45C98.4001 85.65 101.2 89.4 104.4 92.7Z" fill="white"/>
<path d="M214.59 44.85C214.59 45.37 214.373 45.89 213.94 46.41C213.593 46.93 213.203 47.45 212.77 47.97C212.337 48.49 211.903 49.01 211.47 49.53C211.123 49.9633 210.907 50.3967 210.82 50.83L209.26 59.8L207.7 66.56C207.007 69.247 206.097 72.193 204.97 75.4C203.93 78.607 202.673 81.813 201.2 85.02L200.81 85.93C199.423 88.443 197.69 89.7 195.61 89.7C194.137 89.7 193.4 89.007 193.4 87.62C193.4 87.533 193.4 87.447 193.4 87.36C193.487 87.273 193.53 87.143 193.53 86.97C194.743 80.037 195.567 73.883 196 68.51C196.433 63.137 196.65 58.673 196.65 55.12V52V48.1L183.13 48.49C180.27 48.5767 177.93 48.8367 176.11 49.27C174.377 49.7033 172.99 50.18 171.95 50.7C170.91 51.133 170.173 51.567 169.74 52C169.307 52.347 168.96 52.52 168.7 52.52C168.267 52.52 167.183 52.173 165.45 51.48C163.803 50.7 162.07 49.8333 160.25 48.88C158.43 47.9267 156.783 46.93 155.31 45.89C153.923 44.85 153.23 44.0267 153.23 43.42C153.23 43.2467 153.317 43.0733 153.49 42.9C153.75 42.64 154.227 42.51 154.92 42.51C155.527 42.51 156.177 42.5967 156.87 42.77C157.65 42.9433 158.647 43.1167 159.86 43.29C161.073 43.4633 162.547 43.6367 164.28 43.81C166.1 43.9833 168.31 44.07 170.91 44.07H172.73L190.02 43.55C191.927 43.4633 193.313 43.2033 194.18 42.77C195.047 42.3367 195.653 41.86 196 41.34C196.347 40.82 196.563 40.3867 196.65 40.04C196.823 39.6067 197.127 39.39 197.56 39.39H198.6C203.453 39.39 207.31 39.6933 210.17 40.3C213.117 40.9067 214.59 42.4233 214.59 44.85ZM225.12 93.73C217.147 97.11 209.823 99.883 203.15 102.05C196.477 104.13 190.713 105.777 185.86 106.99C181.093 108.203 177.41 109.027 174.81 109.46C172.21 109.807 170.997 109.937 171.17 109.85C170.65 110.11 170.087 110.673 169.48 111.54C168.873 112.407 168.18 112.883 167.4 112.97C166.187 112.97 164.453 112.493 162.2 111.54C160.033 110.5 157.867 109.33 155.7 108.03C153.62 106.73 151.757 105.473 150.11 104.26C148.55 103.047 147.77 102.18 147.77 101.66C147.77 100.793 148.333 100.36 149.46 100.36C150.327 100.36 151.54 100.49 153.1 100.75C154.66 100.923 156.653 101.01 159.08 101.01C159.687 101.01 160.337 101.01 161.03 101.01C161.723 101.01 162.46 100.967 163.24 100.88L172.6 100.1V79.3C172.6 78.26 172.513 77.393 172.34 76.7C172.253 75.92 171.863 75.183 171.17 74.49C170.477 73.797 169.307 73.103 167.66 72.41C166.1 71.63 163.89 70.72 161.03 69.68C161.03 68.987 161.723 68.467 163.11 68.12C164.583 67.773 166.317 67.6 168.31 67.6C169.003 67.6 169.697 67.6 170.39 67.6C171.17 67.6 171.907 67.687 172.6 67.86C175.98 68.293 178.623 68.683 180.53 69.03C182.437 69.29 183.823 69.55 184.69 69.81C185.643 70.07 186.207 70.373 186.38 70.72C186.553 71.067 186.64 71.5 186.64 72.02C186.64 72.973 186.51 73.927 186.25 74.88C186.077 75.833 185.99 76.657 185.99 77.35V98.67C188.59 98.237 193.01 97.457 199.25 96.33C205.577 95.203 213.767 93.687 223.82 91.78C224.687 91.607 225.12 91.52 225.12 91.52V37.44C225.12 36.4867 224.99 35.62 224.73 34.84C224.557 33.9733 223.993 33.1067 223.04 32.24C222.087 31.2867 220.657 30.2467 218.75 29.12C216.843 27.9067 214.2 26.4767 210.82 24.83C210.82 24.2233 211.383 23.7467 212.51 23.4C213.637 23.0533 215.067 22.88 216.8 22.88C218.013 22.88 219.313 22.9667 220.7 23.14C222.173 23.2267 223.647 23.4867 225.12 23.92C228.153 24.7 230.667 25.3933 232.66 26C234.74 26.6067 236.343 27.17 237.47 27.69C238.683 28.21 239.507 28.6867 239.94 29.12C240.46 29.5533 240.72 30.03 240.72 30.55C240.72 30.81 240.503 31.6767 240.07 33.15C239.637 34.6233 239.42 35.9667 239.42 37.18V75.14C240.547 74.88 241.543 74.533 242.41 74.1C243.363 73.58 244.143 73.103 244.75 72.67C245.443 72.15 245.963 71.717 246.31 71.37C246.657 70.937 246.917 70.72 247.09 70.72C251.683 70.72 255.063 71.067 257.23 71.76C259.397 72.453 260.48 74.013 260.48 76.44C260.48 77.393 260.047 78.13 259.18 78.65C258.4 79.083 257.533 79.43 256.58 79.69C255.453 80.037 254.197 80.21 252.81 80.21H239.42V106.08L239.03 113.23C238.857 115.483 238.51 117.867 237.99 120.38C237.47 122.807 236.82 125.103 236.04 127.27C235.26 129.437 234.35 131.213 233.31 132.6C232.357 133.987 231.23 134.68 229.93 134.68C226.723 134.68 225.12 125.147 225.12 106.08V93.73Z" fill="white"/>
<path d="M259.32 205.99C259.32 206.423 259.103 206.9 258.67 207.42C258.323 207.853 257.89 208.33 257.37 208.85C256.937 209.37 256.503 209.89 256.07 210.41C255.637 210.843 255.42 211.277 255.42 211.71C254.467 219.597 252.907 227.267 250.74 234.72C248.573 242.087 245.67 249.41 242.03 256.69L241.64 257.34C240.08 259.94 238.39 261.24 236.57 261.24C235.097 261.24 234.36 260.677 234.36 259.55C234.36 259.203 234.403 258.9 234.49 258.64C237.783 241.393 239.43 224.883 239.43 209.11L217.2 209.89C211.393 210.063 206.93 210.41 203.81 210.93C200.69 211.45 198.35 212.013 196.79 212.62C195.23 213.14 194.19 213.617 193.67 214.05C193.237 214.397 192.803 214.57 192.37 214.57C191.937 214.57 190.897 214.223 189.25 213.53C187.603 212.75 185.827 211.883 183.92 210.93C182.1 209.977 180.453 208.98 178.98 207.94C177.507 206.9 176.77 206.077 176.77 205.47C176.77 205.037 177.117 204.777 177.81 204.69C178.503 204.517 178.893 204.43 178.98 204.43C179.24 204.43 179.413 204.473 179.5 204.56C179.587 204.56 180.02 204.647 180.8 204.82C181.58 204.993 182.577 205.167 183.79 205.34C185.09 205.513 186.52 205.687 188.08 205.86C189.727 205.947 191.417 205.99 193.15 205.99C193.67 205.99 194.19 205.99 194.71 205.99C195.23 205.903 195.75 205.86 196.27 205.86L234.49 204.43C236.397 204.343 237.74 204.083 238.52 203.65C239.387 203.217 239.993 202.783 240.34 202.35C240.773 201.83 241.033 201.397 241.12 201.05C241.293 200.703 241.597 200.53 242.03 200.53C247.057 200.53 251.173 200.833 254.38 201.44C257.673 202.047 259.32 203.563 259.32 205.99ZM274.53 270.47C274.53 271.683 274.14 272.593 273.36 273.2C272.667 273.807 271.887 274.24 271.02 274.5C270.24 274.76 269.503 274.933 268.81 275.02C268.117 275.02 267.77 275.02 267.77 275.02H243.98L219.02 275.8C210.353 276.06 203.463 276.493 198.35 277.1C193.323 277.707 189.423 278.357 186.65 279.05C183.963 279.657 182.1 280.22 181.06 280.74C180.107 281.173 179.413 281.39 178.98 281.39C178.633 281.39 177.507 281 175.6 280.22C173.78 279.44 171.83 278.53 169.75 277.49C167.67 276.363 165.763 275.237 164.03 274.11C162.383 272.983 161.56 272.073 161.56 271.38C161.56 271.033 161.907 270.817 162.6 270.73C163.293 270.557 163.727 270.47 163.9 270.47C164.247 270.47 164.507 270.513 164.68 270.6C164.94 270.687 165.503 270.817 166.37 270.99C167.323 271.163 168.45 271.38 169.75 271.64C171.137 271.813 172.697 271.987 174.43 272.16C176.163 272.247 177.94 272.29 179.76 272.29C180.28 272.29 180.8 272.29 181.32 272.29C181.84 272.203 182.36 272.16 182.88 272.16L236.57 270.47C240.643 270.383 243.85 270.08 246.19 269.56C248.53 268.953 250.307 268.303 251.52 267.61C252.82 266.917 253.73 266.31 254.25 265.79C254.77 265.183 255.247 264.88 255.68 264.88C261.227 264.88 265.733 265.183 269.2 265.79C272.753 266.397 274.53 267.957 274.53 270.47ZM368.765 269.95L368.245 277.1C368.071 279.353 367.725 281.737 367.205 284.25C366.771 286.763 366.165 289.06 365.385 291.14C364.605 293.307 363.695 295.083 362.655 296.47C361.615 297.943 360.445 298.68 359.145 298.68C355.938 298.68 354.335 289.103 354.335 269.95V201.31C354.335 200.357 354.205 199.49 353.945 198.71C353.771 197.843 353.208 196.977 352.255 196.11C351.301 195.157 349.871 194.117 347.965 192.99C346.058 191.777 343.415 190.347 340.035 188.7C340.035 188.093 340.598 187.617 341.725 187.27C342.851 186.923 344.281 186.75 346.015 186.75C347.228 186.75 348.528 186.837 349.915 187.01C351.388 187.097 352.861 187.357 354.335 187.79C357.541 188.57 360.141 189.263 362.135 189.87C364.215 190.477 365.818 191.04 366.945 191.56C368.158 192.08 368.938 192.6 369.285 193.12C369.718 193.64 369.935 194.16 369.935 194.68C369.935 195.46 369.718 196.37 369.285 197.41C368.938 198.45 368.765 199.707 368.765 201.18V269.95ZM350.045 259.94C327.771 272.593 309.918 278.92 296.485 278.92C295.445 278.92 294.448 278.79 293.495 278.53C292.541 278.183 291.718 277.403 291.025 276.19C290.331 274.89 289.768 273.027 289.335 270.6C288.988 268.173 288.815 264.793 288.815 260.46V239.53C287.688 239.01 286.518 238.403 285.305 237.71C284.178 237.017 283.138 236.367 282.185 235.76C281.318 235.067 280.581 234.46 279.975 233.94C279.368 233.333 279.065 232.813 279.065 232.38C279.065 232.207 279.151 231.99 279.325 231.73C279.498 231.47 279.931 231.34 280.625 231.34C281.231 231.34 281.881 231.427 282.575 231.6C283.355 231.773 284.308 231.99 285.435 232.25C286.648 232.423 288.121 232.597 289.855 232.77C291.675 232.943 293.928 233.03 296.615 233.03H298.435L315.335 232.38L317.545 208.33L311.825 208.46C308.531 208.547 305.975 208.85 304.155 209.37C302.335 209.803 300.905 210.28 299.865 210.8C298.911 211.32 298.218 211.797 297.785 212.23C297.438 212.577 297.005 212.75 296.485 212.75C296.138 212.75 295.141 212.403 293.495 211.71C291.848 211.017 290.071 210.193 288.165 209.24C286.345 208.2 284.698 207.203 283.225 206.25C281.751 205.21 281.015 204.343 281.015 203.65C281.015 203.303 281.188 203.043 281.535 202.87C281.968 202.697 282.358 202.61 282.705 202.61C283.138 202.61 283.658 202.697 284.265 202.87C284.958 203.043 285.868 203.26 286.995 203.52C288.121 203.693 289.508 203.867 291.155 204.04C292.888 204.213 294.968 204.3 297.395 204.3C297.828 204.3 298.305 204.3 298.825 204.3C299.345 204.213 299.908 204.17 300.515 204.17L311.955 203.78C313.861 203.693 315.205 203.433 315.985 203C316.851 202.567 317.415 202.133 317.675 201.7C318.021 201.18 318.281 200.747 318.455 200.4C318.628 199.967 318.975 199.75 319.495 199.75H321.055C326.341 199.75 330.241 200.053 332.755 200.66C335.355 201.18 336.655 202.653 336.655 205.08C336.655 205.6 336.481 206.12 336.135 206.64C335.788 207.16 335.398 207.68 334.965 208.2C334.531 208.633 334.098 209.067 333.665 209.5C333.231 209.933 332.971 210.367 332.885 210.8L326.905 229.65C330.891 230.257 332.885 231.73 332.885 234.07C332.885 236.15 330.328 237.19 325.215 237.19L309.875 237.32C308.315 237.32 306.971 237.407 305.845 237.58C304.805 237.753 303.938 237.84 303.245 237.84L303.375 265.4C303.375 265.747 303.505 266.093 303.765 266.44C304.111 266.787 304.545 266.96 305.065 266.96C315.378 266.96 329.721 263.97 348.095 257.99C349.655 257.47 350.825 257.21 351.605 257.21C352.211 257.21 352.515 257.383 352.515 257.73C352.515 258.25 351.691 258.987 350.045 259.94ZM482.889 205.99C482.889 206.423 482.673 206.9 482.239 207.42C481.893 207.853 481.459 208.33 480.939 208.85C480.506 209.37 480.073 209.89 479.639 210.41C479.206 210.843 478.989 211.277 478.989 211.71C478.036 219.597 476.476 227.267 474.309 234.72C472.143 242.087 469.239 249.41 465.599 256.69L465.209 257.34C463.649 259.94 461.959 261.24 460.139 261.24C458.666 261.24 457.929 260.677 457.929 259.55C457.929 259.203 457.973 258.9 458.059 258.64C461.353 241.393 462.999 224.883 462.999 209.11L440.769 209.89C434.963 210.063 430.499 210.41 427.379 210.93C424.259 211.45 421.919 212.013 420.359 212.62C418.799 213.14 417.759 213.617 417.239 214.05C416.806 214.397 416.373 214.57 415.939 214.57C415.506 214.57 414.466 214.223 412.819 213.53C411.173 212.75 409.396 211.883 407.489 210.93C405.669 209.977 404.023 208.98 402.549 207.94C401.076 206.9 400.339 206.077 400.339 205.47C400.339 205.037 400.686 204.777 401.379 204.69C402.073 204.517 402.463 204.43 402.549 204.43C402.809 204.43 402.983 204.473 403.069 204.56C403.156 204.56 403.589 204.647 404.369 204.82C405.149 204.993 406.146 205.167 407.359 205.34C408.659 205.513 410.089 205.687 411.649 205.86C413.296 205.947 414.986 205.99 416.719 205.99C417.239 205.99 417.759 205.99 418.279 205.99C418.799 205.903 419.319 205.86 419.839 205.86L458.059 204.43C459.966 204.343 461.309 204.083 462.089 203.65C462.956 203.217 463.563 202.783 463.909 202.35C464.343 201.83 464.603 201.397 464.689 201.05C464.863 200.703 465.166 200.53 465.599 200.53C470.626 200.53 474.743 200.833 477.949 201.44C481.243 202.047 482.889 203.563 482.889 205.99ZM498.099 272.42C498.099 273.633 497.709 274.543 496.929 275.15C496.236 275.757 495.456 276.19 494.589 276.45C493.809 276.71 493.073 276.883 492.379 276.97C491.686 276.97 491.339 276.97 491.339 276.97H467.549L442.589 277.75C435.483 277.923 429.329 278.27 424.129 278.79C418.929 279.31 415.073 279.787 412.559 280.22C409.006 280.913 406.536 281.607 405.149 282.3C403.763 282.907 402.896 283.21 402.549 283.21C402.203 283.21 401.076 282.82 399.169 282.04C397.349 281.26 395.399 280.35 393.319 279.31C391.239 278.183 389.333 277.1 387.599 276.06C385.953 274.933 385.129 274.023 385.129 273.33C385.129 272.983 385.476 272.767 386.169 272.68C386.863 272.507 387.296 272.42 387.469 272.42C387.816 272.42 388.076 272.463 388.249 272.55C388.509 272.637 389.073 272.767 389.939 272.94C390.893 273.113 392.063 273.33 393.449 273.59C394.836 273.763 396.396 273.937 398.129 274.11C399.863 274.197 401.596 274.24 403.329 274.24C403.849 274.24 404.369 274.24 404.889 274.24C405.409 274.153 405.929 274.11 406.449 274.11L426.469 273.46V245.25C426.469 244.21 426.383 243.3 426.209 242.52C426.036 241.74 425.559 241.003 424.779 240.31C423.999 239.53 422.829 238.793 421.269 238.1C419.796 237.407 417.716 236.583 415.029 235.63C415.029 234.937 415.723 234.417 417.109 234.07C418.496 233.637 420.186 233.42 422.179 233.42C422.873 233.42 423.566 233.463 424.259 233.55C425.039 233.55 425.776 233.593 426.469 233.68C430.196 234.2 433.056 234.633 435.049 234.98C437.129 235.24 438.603 235.543 439.469 235.89C440.336 236.15 440.813 236.497 440.899 236.93C441.073 237.363 441.159 237.927 441.159 238.62C441.159 239.487 441.073 240.353 440.899 241.22C440.813 242 440.769 242.693 440.769 243.3V272.94L460.139 272.42C464.386 272.247 467.679 271.857 470.019 271.25C472.359 270.643 474.136 270.037 475.349 269.43C476.563 268.737 477.386 268.13 477.819 267.61C478.339 267.09 478.816 266.83 479.249 266.83C484.796 266.83 489.303 267.133 492.769 267.74C496.323 268.347 498.099 269.907 498.099 272.42Z" fill="white"/>
<path d="M297.2 98.7L295.4 92.85C299.4 93.25 302.75 93.5 305.45 93.6C308.25 93.6 309.65 93.6 309.65 93.6H310.25L308.45 27C308.35 23.8 308.1 20.8 307.7 18C307.4 15.2 307 13.25 306.5 12.15C306.3 11.55 306.35 11.1 306.65 10.8C306.85 10.5 307.3 10.35 308 10.35C309 10.55 310.4 11 312.2 11.7C314.1 12.4 316.1 13.15 318.2 13.95C320.3 14.65 322.05 15.3 323.45 15.9C324.05 14.5 324.65 12.95 325.25 11.25C325.95 9.44999 326.5 7.89999 326.9 6.59999C327 6.09999 327.1 5.69999 327.2 5.39999C327.3 4.99999 327.4 4.64999 327.5 4.34999C327.6 3.64999 327.95 3.29999 328.55 3.29999C328.85 3.19999 329.25 3.29999 329.75 3.59999C330.55 3.89999 331.7 4.54999 333.2 5.54999C334.8 6.44999 336.5 7.44999 338.3 8.54999C338.2 6.94999 338.05 5.64999 337.85 4.64999C337.65 3.54999 337.4 2.74999 337.1 2.24999C337 1.94999 337.05 1.59999 337.25 1.19999C337.35 1.09999 337.6 1.04999 338 1.04999C338.6 1.04999 339.9 1.44999 341.9 2.24999C344 2.94999 346.2 3.79999 348.5 4.79999C350.8 5.69999 352.55 6.49999 353.75 7.19999H379.55C380.35 7.19999 381.05 6.84999 381.65 6.14999L383.75 2.24999C384.35 1.34999 385.15 1.09999 386.15 1.49999C387.75 1.99999 389.85 2.89999 392.45 4.19999C395.15 5.39999 397.25 6.39999 398.75 7.19999C399.65 7.59999 400.1 8.34999 400.1 9.44999C400.1 10.55 399.5 11.35 398.3 11.85L397.25 12.3L396.8 12.6H406.4C407.4 12.6 408.15 12.2 408.65 11.4C408.85 10.9 409.2 10.3 409.7 9.59999C410.3 8.79999 410.85 8.04999 411.35 7.34999C411.75 6.64999 412.25 6.29999 412.85 6.29999C413.55 6.29999 414.9 6.79999 416.9 7.79999C418.9 8.69999 421 9.74999 423.2 10.95C425.5 12.15 427.3 13.15 428.6 13.95C429.4 14.45 429.8 15.25 429.8 16.35C429.8 16.95 429.6 17.55 429.2 18.15C428.9 18.65 428.45 19 427.85 19.2C427.55 19.3 427.25 19.35 426.95 19.35C426.75 19.35 426.55 19.4 426.35 19.5C425.55 19.9 424.9 20.4 424.4 21C424 21.5 423.75 22.35 423.65 23.55L422.3 92.55L422.6 92.25C423 91.35 423.75 89.9 424.85 87.9C425.95 85.9 426.85 84.35 427.55 83.25C427.95 82.55 428.55 82.2 429.35 82.2C429.95 82.2 430.45 82.45 430.85 82.95C431.75 83.75 432.85 84.95 434.15 86.55C435.45 88.15 436.7 89.75 437.9 91.35C439.1 92.95 439.95 94.2 440.45 95.1C440.75 95.5 440.9 95.95 440.9 96.45C440.9 97.55 440.4 98.1 439.4 98.1H309.8C309.8 98.1 308.5 98.15 305.9 98.25C303.3 98.25 300.4 98.4 297.2 98.7ZM381.5 30.9H352.1V93.6H381.5V30.9ZM357.2 87C355.9 87 355.25 86.4 355.25 85.2V52.65C355.25 48.75 355.2 46 355.1 44.4C355 42.7 354.8 41.45 354.5 40.65C354.4 40.15 354.5 39.75 354.8 39.45C355.1 39.15 355.55 39.05 356.15 39.15C357.25 39.55 358.8 40.15 360.8 40.95C362.8 41.75 364.4 42.45 365.6 43.05H367.55C368.15 43.05 368.6 42.85 368.9 42.45L370.1 40.05C370.4 39.65 370.75 39.45 371.15 39.45C371.65 39.45 372.5 39.7 373.7 40.2C374.9 40.6 376.15 41.1 377.45 41.7C378.75 42.2 379.75 42.7 380.45 43.2C381.05 43.5 381.35 44 381.35 44.7C381.35 45.4 381 45.9 380.3 46.2L379.25 46.65C378.55 47.25 378.2 48.2 378.2 49.5V81.15C378.2 81.85 377.3 82.45 375.5 82.95C373.8 83.45 372.1 83.7 370.4 83.7C369.2 83.7 368.6 83.15 368.6 82.05V77.4H365V84.45C365 85.15 364.1 85.75 362.3 86.25C360.5 86.75 358.8 87 357.2 87ZM416 133.65C412.7 130.25 408.7 126.65 404 122.85C399.3 119.05 394.4 115.55 389.3 112.35C384.2 109.15 379.4 106.75 374.9 105.15C374.7 104.75 374.6 104.4 374.6 104.1C374.6 103.3 375 102.65 375.8 102.15C380.5 102.35 385.35 102.8 390.35 103.5C395.45 104.1 400.35 105 405.05 106.2C409.85 107.4 414.15 108.85 417.95 110.55C421.75 112.25 424.7 114.25 426.8 116.55C428.1 117.95 429 119.4 429.5 120.9C430.1 122.4 430.4 123.85 430.4 125.25C430.4 128.65 429.15 131.45 426.65 133.65C425.05 135.25 423.25 136.05 421.25 136.05C419.35 136.05 417.6 135.25 416 133.65ZM299.6 137.25C298.3 136.45 298 135.45 298.7 134.25C301.7 132.95 304.95 131.1 308.45 128.7C312.05 126.4 315.6 123.8 319.1 120.9C322.6 118 325.85 115.05 328.85 112.05C331.85 108.95 334.3 106.05 336.2 103.35L337.85 100.8C338.15 100.4 338.55 100.1 339.05 99.9C339.65 99.9 340.1 99.95 340.4 100.05C341.3 100.45 342.7 101.15 344.6 102.15C346.5 103.05 348.55 104.05 350.75 105.15C352.95 106.25 354.95 107.35 356.75 108.45C358.65 109.45 360 110.2 360.8 110.7C361.4 111 361.5 111.75 361.1 112.95C360.7 113.95 360.05 114.35 359.15 114.15C358.75 114.05 358.25 114 357.65 114C356.75 114 355.4 114.55 353.6 115.65C348.4 118.85 342.6 121.85 336.2 124.65C329.9 127.45 323.55 129.9 317.15 132C310.85 134.2 305 135.95 299.6 137.25ZM381.5 11.7H352.1V26.4H364.7C366 26.4 366.95 25.95 367.55 25.05C368.05 24.25 368.65 23.3 369.35 22.2C370.15 21.1 370.75 20.2 371.15 19.5C371.65 18.9 372.15 18.6 372.65 18.6C373.15 18.6 373.6 18.75 374 19.05C375.1 19.75 376.35 20.8 377.75 22.2C379.25 23.5 380.5 24.8 381.5 26.1V11.7ZM325.7 93.6H338.45V71.1H325.25C325.35 75.7 325.45 80 325.55 84C325.65 88 325.7 91.2 325.7 93.6ZM402.05 38.85H407.75L408.2 17.1H395.3V38.55C396.4 38.65 397.5 38.75 398.6 38.85C399.8 38.85 400.95 38.85 402.05 38.85ZM395.3 70.2V93.6H406.55L407.15 69.9L402.05 70.05C400.85 70.05 399.65 70.05 398.45 70.05C397.35 70.05 396.3 70.1 395.3 70.2ZM402.05 65.4H407.15L407.6 43.35H402.05C400.85 43.35 399.65 43.35 398.45 43.35C397.35 43.35 396.3 43.4 395.3 43.5V65.25C396.4 65.35 397.5 65.4 398.6 65.4C399.8 65.4 400.95 65.4 402.05 65.4ZM324.05 21.6L324.5 41.1C325.5 41 326.25 40.55 326.75 39.75C327.25 38.95 327.8 38 328.4 36.9C329.1 35.8 329.65 34.95 330.05 34.35C330.55 33.75 331.1 33.45 331.7 33.45C332.3 33.45 332.8 33.65 333.2 34.05C334 34.75 334.85 35.7 335.75 36.9C336.75 38 337.65 39.1 338.45 40.2V17.85C336.15 18.45 333.7 19.1 331.1 19.8C328.6 20.5 326.25 21.1 324.05 21.6ZM338.45 45.75H324.65L325.1 66.45C325.8 66.15 326.35 65.7 326.75 65.1C327.25 64.3 327.8 63.35 328.4 62.25C329.1 61.15 329.65 60.3 330.05 59.7C330.55 59.1 331.1 58.8 331.7 58.8C332.3 58.8 332.8 59 333.2 59.4C334 60.1 334.85 61.05 335.75 62.25C336.75 63.45 337.65 64.6 338.45 65.7V45.75ZM368.6 47.55H365V72.9H368.6V47.55Z" fill="white"/>
<path d="M465.927 157.71C464.367 158.49 463.154 158.317 462.287 157.19C461.247 155.717 461.42 154.46 462.807 153.42C464.28 152.38 466.144 150.603 468.397 148.09C470.65 145.663 472.297 142.933 473.337 139.9C473.857 138.34 473.944 136.91 473.597 135.61C473.337 134.397 472.297 133.747 470.477 133.66C467.53 133.487 465.06 132.62 463.067 131.06C461.16 129.5 460.207 127.247 460.207 124.3C460.207 121.873 461.117 119.707 462.937 117.8C464.757 115.893 467.314 114.94 470.607 114.94C473.814 114.94 476.63 116.24 479.057 118.84C481.484 121.44 482.697 124.907 482.697 129.24C482.697 133.4 481.744 137.387 479.837 141.2C478.017 145.013 475.807 148.35 473.207 151.21C470.607 154.157 468.18 156.323 465.927 157.71Z" fill="white"/>
<path d="M552.4 291.75C549.9 291.75 548.65 290.6 548.65 288.3C548.65 288 548.7 286.4 548.8 283.5C548.9 280.6 549 276.85 549.1 272.25C549.3 267.55 549.5 262.35 549.7 256.65C549.9 250.85 550.05 244.95 550.15 238.95C550.25 232.85 550.3 226.95 550.3 221.25V170.55C550.3 167.25 550.15 164.6 549.85 162.6C549.55 160.5 549.25 159.1 548.95 158.4C548.65 157.7 548.6 157.1 548.8 156.6C549.1 156.2 549.55 156 550.15 156C551.55 156.1 553.55 156.35 556.15 156.75C558.85 157.05 561.5 157.4 564.1 157.8C566.7 158.1 568.6 158.4 569.8 158.7C570.6 158.9 571.1 159.25 571.3 159.75C571.5 160.25 571.6 160.8 571.6 161.4C571.5 162.7 570.7 163.45 569.2 163.65C568.2 163.75 567.45 164.1 566.95 164.7C566.55 165.3 566.35 166.35 566.35 167.85V179.55C570.85 180.55 574.75 181.9 578.05 183.6C581.45 185.3 583.85 187.55 585.25 190.35C586.45 190.45 587.7 190.55 589 190.65C590.4 190.75 591.65 190.8 592.75 190.8H606.85V177.3H593.05C593.05 177.3 591.75 177.35 589.15 177.45C586.55 177.45 583.5 177.65 580 178.05L578.2 171.6C582.6 172.2 586.15 172.55 588.85 172.65C591.55 172.75 592.9 172.8 592.9 172.8H606.85V168.15C606.85 165.55 606.7 163.5 606.4 162C606.2 160.5 605.95 159.4 605.65 158.7C605.45 158.3 605.35 157.95 605.35 157.65C605.35 156.65 605.9 156.15 607 156.15C608.3 156.15 610.25 156.3 612.85 156.6C615.55 156.9 618.25 157.25 620.95 157.65C623.75 157.95 625.75 158.25 626.95 158.55C628.05 158.75 628.6 159.6 628.6 161.1C628.5 162.3 627.75 163 626.35 163.2C624.65 163.3 623.8 164.25 623.8 166.05V172.8H637.75C639.25 172.8 640.3 172.35 640.9 171.45C641.4 170.65 642.2 169.55 643.3 168.15C644.4 166.65 645.3 165.5 646 164.7C646.5 164.1 647 163.8 647.5 163.8C648 163.8 648.45 163.95 648.85 164.25C649.85 164.95 651 165.95 652.3 167.25C653.7 168.55 655 169.85 656.2 171.15C657.5 172.45 658.45 173.55 659.05 174.45C659.45 174.85 659.65 175.35 659.65 175.95C659.65 176.85 659.2 177.3 658.3 177.3H623.8V190.8H632.05C633.55 190.8 634.6 190.35 635.2 189.45C635.7 188.65 636.5 187.55 637.6 186.15C638.7 184.65 639.6 183.5 640.3 182.7C640.8 182.1 641.3 181.8 641.8 181.8C642.3 181.8 642.75 181.95 643.15 182.25C644.15 182.95 645.35 183.95 646.75 185.25C648.15 186.45 649.45 187.75 650.65 189.15C651.95 190.45 652.85 191.55 653.35 192.45C653.75 192.85 653.95 193.35 653.95 193.95C653.95 194.85 653.5 195.3 652.6 195.3H623.8V208.8H640.75C642.35 208.8 643.45 208.3 644.05 207.3C644.55 206.5 645.4 205.3 646.6 203.7C647.8 202 648.65 200.8 649.15 200.1C649.75 199.4 650.35 199.05 650.95 199.05C651.45 199.05 651.9 199.2 652.3 199.5C653.4 200.1 654.75 201.1 656.35 202.5C657.95 203.8 659.5 205.15 661 206.55C662.5 207.95 663.6 209.1 664.3 210C664.7 210.5 664.9 211.05 664.9 211.65C664.9 212.75 664.4 213.3 663.4 213.3H590.95C590.95 213.3 590.1 213.3 588.4 213.3C586.8 213.3 584.75 213.35 582.25 213.45C579.85 213.55 577.35 213.75 574.75 214.05L572.95 207.6C577.75 208.2 581.95 208.55 585.55 208.65C589.15 208.75 590.95 208.8 590.95 208.8H606.85V195.3H592.9C591.9 195.3 590.8 195.35 589.6 195.45C588.5 195.45 587.45 195.5 586.45 195.6C586.45 198.7 585.55 201.15 583.75 202.95C581.95 204.75 580 205.65 577.9 205.65C576.6 205.65 575.4 205.25 574.3 204.45C573.2 203.55 572.5 202.15 572.2 200.25C571.8 197.35 571.15 194.65 570.25 192.15C569.35 189.55 568.05 187.2 566.35 185.1V286.65C566.35 287.65 565.6 288.55 564.1 289.35C562.7 290.15 560.9 290.75 558.7 291.15C556.6 291.55 554.5 291.75 552.4 291.75ZM584.05 291.9C581.45 291.9 580.15 290.65 580.15 288.15C580.15 287.75 580.2 286.15 580.3 283.35C580.5 280.65 580.7 277.15 580.9 272.85C581.1 268.45 581.25 263.65 581.35 258.45C581.55 253.25 581.65 248 581.65 242.7C581.65 237.3 581.6 233.05 581.5 229.95C581.4 226.75 581.25 224.35 581.05 222.75C580.85 221.05 580.65 219.8 580.45 219C580.35 218.4 580.45 217.95 580.75 217.65C580.95 217.35 581.4 217.2 582.1 217.2C583.3 217.4 584.95 217.9 587.05 218.7C589.25 219.4 591.45 220.2 593.65 221.1C595.95 221.9 597.85 222.65 599.35 223.35H630.7C631.9 223.35 632.75 222.95 633.25 222.15C633.45 221.65 633.85 220.9 634.45 219.9C635.05 218.8 635.5 218 635.8 217.5C636.2 216.7 636.75 216.3 637.45 216.3C637.65 216.3 637.85 216.35 638.05 216.45C638.35 216.45 638.65 216.5 638.95 216.6C640.25 217 641.85 217.6 643.75 218.4C645.75 219.2 647.7 220.1 649.6 221.1C651.5 222 653 222.8 654.1 223.5C655.2 224.1 655.75 225.05 655.75 226.35C655.75 227.55 655.05 228.45 653.65 229.05L652 229.95C650.8 231.05 650.2 232.85 650.2 235.35V240.3C650.2 245.8 650.25 250.95 650.35 255.75C650.55 260.55 650.7 264.55 650.8 267.75C650.9 270.95 650.95 273 650.95 273.9C650.95 278.8 649.3 282.8 646 285.9C642.8 289 637.1 291 628.9 291.9C628.5 287.6 627.85 284.3 626.95 282C626.15 279.7 624.85 278.05 623.05 277.05C621.35 276.05 618.85 275.35 615.55 274.95C615.25 274.45 615.1 273.95 615.1 273.45C615.1 272.75 615.3 272.2 615.7 271.8H629.65C631.95 271.8 633.1 270.7 633.1 268.5V258.15H598.45V286.35C598.45 287.45 597.7 288.4 596.2 289.2C594.8 290.1 593 290.75 590.8 291.15C588.6 291.65 586.35 291.9 584.05 291.9ZM534.7 230.4C532.1 230.4 530.05 229.7 528.55 228.3C527.05 226.8 526.3 225 526.3 222.9C526.3 221.6 526.6 220.25 527.2 218.85C527.9 217.35 528.95 215.9 530.35 214.5C532.35 212.5 533.8 209.8 534.7 206.4C535.6 202.9 536.05 199.15 536.05 195.15C536.05 192.75 535.9 190.45 535.6 188.25C536.3 187.05 537.3 186.8 538.6 187.5C541.2 190.9 543.25 194.95 544.75 199.65C546.35 204.35 547.15 208.9 547.15 213.3C547.15 218 546.15 222.05 544.15 225.45C542.15 228.75 539 230.4 534.7 230.4ZM633.1 242.85H598.45V253.5H633.1V242.85ZM633.1 228H598.45V238.35H633.1V228Z" fill="white"/>
</svg>
